# 3ds Max Wavefront OBJ Exporter v0.97b - (c)2007 guruware
# File Created: 14.07.2011 13:48:53

#
# object Cylinder01
#

v  0.0000 0.0000 -0.0000
v  0.9533 0.0000 -0.2448
v  0.9843 0.0000 -0.0000
v  0.8625 0.0000 -0.4742
v  0.7175 0.0000 -0.6738
v  0.5274 0.0000 -0.8310
v  0.3042 0.0000 -0.9361
v  0.0618 0.0000 -0.9823
v  -0.1844 0.0000 -0.9668
v  -0.4191 0.0000 -0.8906
v  -0.6274 0.0000 -0.7584
v  -0.7963 0.0000 -0.5785
v  -0.9151 0.0000 -0.3623
v  -0.9765 0.0000 -0.1234
v  -0.9765 0.0000 0.1234
v  -0.9151 0.0000 0.3623
v  -0.7963 0.0000 0.5785
v  -0.6274 0.0000 0.7584
v  -0.4191 0.0000 0.8906
v  -0.1844 0.0000 0.9668
v  0.0618 0.0000 0.9823
v  0.3042 0.0000 0.9361
v  0.5274 0.0000 0.8310
v  0.7175 0.0000 0.6738
v  0.8625 0.0000 0.4742
v  0.9533 0.0000 0.2448
v  0.9533 -1.9685 -0.2448
v  0.9843 -1.9685 -0.0000
v  0.8625 -1.9685 -0.4742
v  0.7175 -1.9685 -0.6738
v  0.5274 -1.9685 -0.8310
v  0.3042 -1.9685 -0.9361
v  0.0618 -1.9685 -0.9823
v  -0.1844 -1.9685 -0.9668
v  -0.4191 -1.9685 -0.8906
v  -0.6274 -1.9685 -0.7584
v  -0.7963 -1.9685 -0.5785
v  -0.9151 -1.9685 -0.3623
v  -0.9765 -1.9685 -0.1234
v  -0.9765 -1.9685 0.1234
v  -0.9151 -1.9685 0.3623
v  -0.7963 -1.9685 0.5785
v  -0.6274 -1.9685 0.7584
v  -0.4191 -1.9685 0.8906
v  -0.1844 -1.9685 0.9668
v  0.0618 -1.9685 0.9823
v  0.3042 -1.9685 0.9361
v  0.5274 -1.9685 0.8310
v  0.7175 -1.9685 0.6738
v  0.8625 -1.9685 0.4742
v  0.9533 -1.9685 0.2448
# 51 vertices

vn 0.0000 1.0000 -0.0000
vn 1.0000 0.0000 -0.0000
vn 0.9686 0.0000 -0.2487
vn 0.8763 0.0000 -0.4818
vn 0.7290 0.0000 -0.6845
vn 0.5358 0.0000 -0.8443
vn 0.3090 0.0000 -0.9511
vn 0.0628 0.0000 -0.9980
vn -0.1874 0.0000 -0.9823
vn -0.4258 0.0000 -0.9048
vn -0.6374 0.0000 -0.7705
vn -0.8090 0.0000 -0.5878
vn -0.9298 0.0000 -0.3681
vn -0.9921 0.0000 -0.1253
vn -0.9921 0.0000 0.1253
vn -0.9298 0.0000 0.3681
vn -0.8090 0.0000 0.5878
vn -0.6374 0.0000 0.7705
vn -0.4258 0.0000 0.9048
vn -0.1874 0.0000 0.9823
vn 0.0628 0.0000 0.9980
vn 0.3090 0.0000 0.9511
vn 0.5358 0.0000 0.8443
vn 0.7290 0.0000 0.6845
vn 0.8763 0.0000 0.4818
vn 0.9686 0.0000 0.2487
# 26 vertex normals

vt 0.5000 0.0000 0.0000
vt 0.7900 0.0000 1.0000
vt 0.7500 0.0000 1.0000
vt 0.8300 0.0000 1.0000
vt 0.8700 0.0000 1.0000
vt 0.9100 0.0000 1.0000
vt 0.9500 0.0000 1.0000
vt 0.9900 0.0000 1.0000
vt 0.0300 0.0000 1.0000
vt -0.0100 0.0000 1.0000
vt 0.0700 0.0000 1.0000
vt 0.1100 0.0000 1.0000
vt 0.1500 0.0000 1.0000
vt 0.1900 0.0000 1.0000
vt 0.2300 0.0000 1.0000
vt 0.2700 0.0000 1.0000
vt 0.3100 0.0000 1.0000
vt 0.3500 0.0000 1.0000
vt 0.3900 0.0000 1.0000
vt 0.4300 0.0000 1.0000
vt 0.4700 0.0000 1.0000
vt 0.5100 0.0000 1.0000
vt 0.5500 0.0000 1.0000
vt 0.5900 0.0000 1.0000
vt 0.6300 0.0000 1.0000
vt 0.6700 0.0000 1.0000
vt 0.7100 0.0000 1.0000
vt 0.7900 1.0000 1.0000
vt 0.7500 1.0000 1.0000
vt 0.8300 1.0000 1.0000
vt 0.8700 1.0000 1.0000
vt 0.9100 1.0000 1.0000
vt 0.9500 1.0000 1.0000
vt 0.9900 1.0000 1.0000
vt 0.0300 1.0000 1.0000
vt -0.0100 1.0000 1.0000
vt 0.0700 1.0000 1.0000
vt 0.1100 1.0000 1.0000
vt 0.1500 1.0000 1.0000
vt 0.1900 1.0000 1.0000
vt 0.2300 1.0000 1.0000
vt 0.2700 1.0000 1.0000
vt 0.3100 1.0000 1.0000
vt 0.3500 1.0000 1.0000
vt 0.3900 1.0000 1.0000
vt 0.4300 1.0000 1.0000
vt 0.4700 1.0000 1.0000
vt 0.5100 1.0000 1.0000
vt 0.5500 1.0000 1.0000
vt 0.5900 1.0000 1.0000
vt 0.6300 1.0000 1.0000
vt 0.6700 1.0000 1.0000
vt 0.7100 1.0000 1.0000
# 53 texture coords

g Cylinder01
f 3/3/1 2/2/1 1/1/1 
f 2/2/1 4/4/1 1/1/1 
f 4/4/1 5/5/1 1/1/1 
f 5/5/1 6/6/1 1/1/1 
f 6/6/1 7/7/1 1/1/1 
f 7/7/1 8/8/1 1/1/1 
f 8/10/1 9/9/1 1/1/1 
f 9/9/1 10/11/1 1/1/1 
f 10/11/1 11/12/1 1/1/1 
f 11/12/1 12/13/1 1/1/1 
f 12/13/1 13/14/1 1/1/1 
f 13/14/1 14/15/1 1/1/1 
f 14/15/1 15/16/1 1/1/1 
f 15/16/1 16/17/1 1/1/1 
f 16/17/1 17/18/1 1/1/1 
f 17/18/1 18/19/1 1/1/1 
f 18/19/1 19/20/1 1/1/1 
f 19/20/1 20/21/1 1/1/1 
f 20/21/1 21/22/1 1/1/1 
f 21/22/1 22/23/1 1/1/1 
f 22/23/1 23/24/1 1/1/1 
f 23/24/1 24/25/1 1/1/1 
f 24/25/1 25/26/1 1/1/1 
f 25/26/1 26/27/1 1/1/1 
f 26/27/1 3/3/1 1/1/1 
f 28/29/2 27/28/3 3/3/2 
f 27/28/3 2/2/3 3/3/2 
f 27/28/3 29/30/4 2/2/3 
f 29/30/4 4/4/4 2/2/3 
f 29/30/4 30/31/5 4/4/4 
f 30/31/5 5/5/5 4/4/4 
f 30/31/5 31/32/6 5/5/5 
f 31/32/6 6/6/6 5/5/5 
f 31/32/6 32/33/7 6/6/6 
f 32/33/7 7/7/7 6/6/6 
f 32/33/7 33/34/8 7/7/7 
f 33/34/8 8/8/8 7/7/7 
f 33/36/8 34/35/9 8/10/8 
f 34/35/9 9/9/9 8/10/8 
f 34/35/9 35/37/10 9/9/9 
f 35/37/10 10/11/10 9/9/9 
f 35/37/10 36/38/11 10/11/10 
f 36/38/11 11/12/11 10/11/10 
f 36/38/11 37/39/12 11/12/11 
f 37/39/12 12/13/12 11/12/11 
f 37/39/12 38/40/13 12/13/12 
f 38/40/13 13/14/13 12/13/12 
f 38/40/13 39/41/14 13/14/13 
f 39/41/14 14/15/14 13/14/13 
f 39/41/14 40/42/15 14/15/14 
f 40/42/15 15/16/15 14/15/14 
f 40/42/15 41/43/16 15/16/15 
f 41/43/16 16/17/16 15/16/15 
f 41/43/16 42/44/17 16/17/16 
f 42/44/17 17/18/17 16/17/16 
f 42/44/17 43/45/18 17/18/17 
f 43/45/18 18/19/18 17/18/17 
f 43/45/18 44/46/19 18/19/18 
f 44/46/19 19/20/19 18/19/18 
f 44/46/19 45/47/20 19/20/19 
f 45/47/20 20/21/20 19/20/19 
f 45/47/20 46/48/21 20/21/20 
f 46/48/21 21/22/21 20/21/20 
f 46/48/21 47/49/22 21/22/21 
f 47/49/22 22/23/22 21/22/21 
f 47/49/22 48/50/23 22/23/22 
f 48/50/23 23/24/23 22/23/22 
f 48/50/23 49/51/24 23/24/23 
f 49/51/24 24/25/24 23/24/23 
f 49/51/24 50/52/25 24/25/24 
f 50/52/25 25/26/25 24/25/24 
f 50/52/25 51/53/26 25/26/25 
f 51/53/26 26/27/26 25/26/25 
f 51/53/26 28/29/2 26/27/26 
f 28/29/2 3/3/2 26/27/26 
# 75 faces

